# Blender 3.1.2
# www.blender.org
mtllib outside.mtl
o outside
v -2.202214 0.000000 0.000000
v 0.000000 2.202214 0.000000
v 0.000000 -2.202214 0.000000
v 2.202214 0.000000 0.000000
v 0.000000 1.807383 -0.100422
v 0.000000 1.807383 0.100422
v -1.807383 0.000000 0.100422
v -1.807383 0.000000 -0.100422
v 1.807383 0.000000 0.100422
v 1.807383 0.000000 -0.100422
v 0.000000 -1.807383 -0.100422
v 0.000000 -1.807383 0.100422
vn -0.2393 -0.2393 0.9410
vn 0.7071 0.7071 -0.0000
vn -0.7071 0.7071 -0.0000
vn -0.7071 -0.7071 -0.0000
vn 0.7071 -0.7071 -0.0000
vn 0.2393 0.2393 -0.9410
vn 0.2393 -0.2393 -0.9410
vn 0.2393 0.2393 0.9410
vn -0.2393 0.2393 0.9410
vn -0.2393 0.2393 -0.9410
vn 0.2393 -0.2393 0.9410
vn -0.2393 -0.2393 -0.9410
vt 0.445213 0.948970
vt 0.608613 0.620901
vt 0.138268 0.950177
vt 0.608613 0.949147
vt 0.262236 0.621931
vt 0.445213 0.620724
vt 0.687773 0.949147
vt 0.529454 0.620901
vt 0.138268 0.621931
vt 0.687773 0.620901
vt 0.262236 0.950177
vt 0.529454 0.949147
vt 0.727803 0.079280
vt 0.910091 0.367578
vt 0.200252 0.651357
vt 0.529454 0.919721
vt 0.324220 0.651357
vt 0.366054 0.650150
vt 0.656765 0.079280
vt 0.854466 0.367578
vt 0.200252 0.920752
vt 0.727803 0.367578
vt 0.854466 0.079280
vt 0.366054 0.919545
vt 0.910091 0.079280
vt 0.798841 0.367578
vt 0.529454 0.650326
vt 0.076284 0.920752
vt 0.656765 0.367578
vt 0.450295 0.919721
vt 0.854466 0.367578
vt 0.324220 0.920752
vt 0.200252 0.920752
vt 0.798841 0.367578
vt 0.727803 0.367578
vt 0.608613 0.650326
vt 0.608613 0.919721
vt 0.076284 0.651357
vt 0.798841 0.079280
vt 0.727803 0.079280
vt 0.854466 0.079280
vt 0.200252 0.651357
vt 0.450295 0.650326
s 0
usemtl outsideMate
f 3/9/1 7/21/1 1/3/1
f 11/39/2 7/22/2 12/40/2
f 9/31/3 11/39/3 12/41/3
f 6/19/4 10/35/4 9/29/4
f 5/14/5 7/23/5 8/25/5
f 5/15/6 4/11/6 10/33/6
f 10/36/7 3/7/7 11/37/7
f 9/32/8 2/5/8 6/17/8
f 2/6/9 7/24/9 6/18/9
f 5/16/10 1/2/10 2/4/10
f 12/43/11 4/12/11 9/30/11
f 3/9/12 8/28/12 11/38/12
f 3/9/1 12/42/1 7/21/1
f 11/39/2 8/26/2 7/22/2
f 9/31/3 10/34/3 11/39/3
f 6/19/4 5/13/4 10/35/4
f 5/14/5 6/20/5 7/23/5
f 5/15/6 2/5/6 4/11/6
f 10/36/7 4/10/7 3/7/7
f 9/32/8 4/11/8 2/5/8
f 2/6/9 1/1/9 7/24/9
f 5/16/10 8/27/10 1/2/10
f 12/43/11 3/8/11 4/12/11
f 3/9/12 1/3/12 8/28/12
