# Blender 3.1.2
# www.blender.org
mtllib base.mtl
o base
v -0.396534 -0.498343 0.398776
v 0.000000 0.502299 0.000000
v -0.396534 -0.498343 -0.398776
v 0.396534 -0.498343 0.398776
v 0.396534 -0.498343 -0.398776
v -1.000000 -0.997544 1.000000
v -1.000000 -0.997544 -1.000000
v 1.000000 -0.997544 1.000000
v 1.000000 -0.997544 -1.000000
v 0.000000 -0.997544 -0.597777
v 0.000000 -0.997544 0.597777
v -0.599242 -0.997544 0.000000
v 0.599242 -0.997544 0.000000
v 0.000000 -0.997544 0.000000
vn -0.7697 0.5590 0.3085
vn -0.3106 0.5545 -0.7721
vn 0.3106 0.5545 0.7721
vn 0.7697 0.5590 -0.3085
vn -0.3106 0.5545 0.7721
vn -0.0000 -1.0000 -0.0000
vn 0.3106 0.5545 -0.7721
vn -0.7697 0.5590 -0.3085
vn 0.7697 0.5590 0.3085
vn -0.0001 0.3702 0.9289
vn 0.0001 0.3702 -0.9289
vn -0.9286 0.3710 -0.0076
vn -0.0001 0.3702 -0.9289
vn -0.9286 0.3710 0.0076
vn 0.0001 0.3702 0.9289
vn 0.9286 0.3710 -0.0076
vn 0.9286 0.3710 0.0076
vt 0.875116 0.794397
vt 0.763250 0.730498
vt 0.509074 0.927536
vt 0.742413 0.926232
vt 0.853485 0.597964
vt 0.629495 0.595637
vt 0.723717 0.728846
vt 0.533440 0.732812
vt 0.831186 0.793577
vt 0.651782 0.793251
vt 0.486906 0.730267
vt 0.604201 0.791113
vt 0.908316 0.928025
vt 0.791791 0.600613
vt 0.137759 0.317919
vt 0.692656 0.596470
vt 0.569595 0.601763
vt 0.137759 0.171522
vt 0.689023 0.926009
vt 0.797532 0.925956
vt 0.284156 0.317919
vt 0.452243 0.595345
vt 0.569705 0.920646
vt 0.284156 0.171522
vt 0.510722 0.633756
vt 0.210958 0.200964
vt 0.852984 0.891784
vt 0.210958 0.288477
vt 0.743996 0.631214
vt 0.167094 0.244720
vt 0.627267 0.890634
vt 0.254821 0.244720
vt 0.210958 0.244720
s 0
usemtl baseMate
f 3/7/1 7/16/1 12/29/1
f 5/11/2 9/22/2 10/25/2
f 1/1/3 6/13/3 11/27/3
f 4/10/4 8/19/4 13/31/4
f 11/27/5 8/20/5 4/9/5
f 13/32/6 11/28/6 14/33/6
f 10/25/7 7/17/7 3/8/7
f 12/29/8 6/14/8 1/2/8
f 13/31/9 9/23/9 5/12/9
f 2/5/10 1/1/10 11/27/10
f 12/30/6 11/28/6 6/15/6
f 2/3/11 5/11/11 10/25/11
f 10/26/6 12/30/6 7/18/6
f 2/4/12 3/7/12 12/29/12
f 2/3/13 10/25/13 3/8/13
f 10/26/6 13/32/6 14/33/6
f 2/4/14 12/29/14 1/2/14
f 2/5/15 11/27/15 4/9/15
f 2/6/16 13/31/16 5/12/16
f 2/6/17 4/10/17 13/31/17
f 13/32/6 8/21/6 11/28/6
f 12/30/6 14/33/6 11/28/6
f 10/26/6 14/33/6 12/30/6
f 10/26/6 9/24/6 13/32/6
